<svg width="40" height="40" viewBox="0 0 75 75" fill="none" xmlns="http://www.w3.org/2000/svg">
<path d="M37.5383 40.4629C29.0607 39.2042 14.808 42.647 14.808 48.9034V51.828C14.808 53.8641 16.4739 55.53 18.51 55.53H34.6137C33.4661 53.1607 31.3559 46.1639 37.5383 40.4629Z" fill="#555"/>
<path d="M33.318 37.02C38.4294 37.02 42.573 32.8764 42.573 27.765C42.573 22.6536 38.4294 18.51 33.318 18.51C28.2066 18.51 24.063 22.6536 24.063 27.765C24.063 32.8764 28.2066 37.02 33.318 37.02Z" fill="#555"/>
<path d="M59.4541 60.5277L53.9752 55.0487C54.9377 53.5679 55.53 51.828 55.53 49.94C55.53 44.8312 51.3838 40.685 46.275 40.685C41.1662 40.685 37.02 44.8682 37.02 49.977C37.02 55.0858 41.1662 59.232 46.275 59.232C48.163 59.232 49.903 58.6767 51.3838 57.6772L56.8627 63.1561L59.4541 60.5277ZM46.275 55.53C43.2023 55.53 40.722 53.0497 40.722 49.977C40.722 46.9043 43.2023 44.424 46.275 44.424C49.3477 44.424 51.828 46.9043 51.828 49.977C51.828 53.0497 49.3477 55.53 46.275 55.53Z" fill="#555"/>
</svg>
