<svg width="56" height="56" viewBox="0 0 56 56" fill="#1DB5BE" xmlns="http://www.w3.org/2000/svg">
<path d="M39.7035 14.4585C38.8084 13.5635 37.3626 13.5635 36.4675 14.4585L23.5237 27.4023L26.7597 30.6383L39.7035 17.6715C40.5756 16.7994 40.5756 15.3306 39.7035 14.4585ZM49.4343 14.4356L26.7597 37.1102L18.7731 29.1465C17.878 28.2515 16.4322 28.2515 15.5371 29.1465C14.6421 30.0416 14.6421 31.4874 15.5371 32.3825L25.1302 41.9756C26.0253 42.8706 27.4711 42.8706 28.3662 41.9756L52.6703 17.6945C53.5653 16.7994 53.5653 15.3536 52.6703 14.4585H52.6473C51.7752 13.5405 50.3294 13.5405 49.4343 14.4356ZM2.5704 32.4054L12.1635 41.9985C13.0585 42.8935 14.5044 42.8935 15.3994 41.9985L17.0059 40.392L5.80635 29.1465C4.9113 28.2515 3.46545 28.2515 2.5704 29.1465C1.67535 30.0416 1.67535 31.5104 2.5704 32.4054Z" fill="#1DB5BE"/>
</svg>
