<svg width="56" height="56" viewBox="0 0 56 56" fill="#1DB5BE" xmlns="http://www.w3.org/2000/svg">
<path d="M25.245 20.0813V28.5269C25.245 29.3301 25.6811 30.0875 26.3696 30.5006L33.53 34.7463C34.3562 35.2283 35.4119 34.9529 35.8938 34.1496C36.3758 33.3234 36.1233 32.2677 35.2971 31.7858L28.7105 27.8613V20.0583C28.6875 19.1403 27.9072 18.36 26.9663 18.36C26.0253 18.36 25.245 19.1403 25.245 20.0813ZM48.195 21.8025V9.66195C48.195 8.6292 46.9557 8.1243 46.2443 8.8587L42.1592 12.9438C38.0052 8.78985 32.0841 6.40305 25.6122 6.9768C15.9962 7.8489 8.0784 15.5831 7.0227 25.1991C5.6457 37.638 15.3536 48.195 27.54 48.195C38.0741 48.195 46.7721 40.3002 48.0344 30.1104C48.195 28.7334 47.1164 27.54 45.7394 27.54C44.5919 27.54 43.628 28.3892 43.4903 29.5137C42.5034 37.5233 35.5955 43.7198 27.3105 43.605C18.7961 43.4903 11.6127 36.3069 11.475 27.7695C11.3373 18.819 18.6125 11.475 27.54 11.475C31.9694 11.475 35.9856 13.2881 38.9003 16.1798L34.1037 20.9763C33.3693 21.7107 33.8742 22.95 34.907 22.95H47.0475C47.6901 22.95 48.195 22.4451 48.195 21.8025Z" fill="#1DB5BE"/>
</svg>
