<svg width="620" height="497" viewBox="0 0 620 497" fill="none" xmlns="http://www.w3.org/2000/svg">
<ellipse cx="310.5" cy="248.5" rx="252.5" ry="248.5" fill="#4DB05F"/>
<path d="M57.1508 94.865C57.1508 87.0381 63.8707 80.6931 72.1601 80.6931H547.263C555.552 80.6931 562.272 87.0381 562.272 94.865V395.271C562.272 397.038 560.721 398.47 558.808 398.47H60.6145C58.7016 398.47 57.1508 397.038 57.1508 395.271V94.865Z" fill="black"/>
<path d="M311.632 92.4232C311.632 93.244 310.909 93.9227 310 93.9227C309.091 93.9227 308.368 93.244 308.368 92.4232C308.368 91.6023 309.091 90.9236 310 90.9236C310.909 90.9236 311.632 91.6023 311.632 92.4232Z" fill="#0F0F0F" stroke="#151515" stroke-width="0.2"/>
<ellipse cx="309.827" cy="92.7964" rx="0.404099" ry="0.373228" fill="#16181E"/>
<ellipse cx="309.827" cy="92.2632" rx="0.404099" ry="0.373228" fill="#0A0B0D"/>
<ellipse opacity="0.6" cx="310" cy="92.4231" rx="0.577271" ry="0.533183" fill="#1F2531"/>
<path fill-rule="evenodd" clip-rule="evenodd" d="M56.4005 94.865C56.4005 86.6698 63.4409 80 72.1603 80H547.263C555.982 80 563.022 86.6698 563.022 94.865V395.271C563.022 397.421 561.136 399.163 558.808 399.163H60.6146C58.2872 399.163 56.4005 397.421 56.4005 395.271V94.865ZM72.1603 81.3863C64.3008 81.3863 57.9014 87.4064 57.9014 94.865V395.271C57.9014 396.655 59.1162 397.777 60.6146 397.777H558.808C560.307 397.777 561.522 396.655 561.522 395.271V94.865C561.522 87.4064 555.122 81.3863 547.263 81.3863H72.1603Z" fill="#6A6B6F"/>
<path d="M528.786 406.308C535.067 406.308 574.974 415.372 559.178 415.372H60.2449C44.4484 415.372 84.3558 406.308 90.6372 406.308H528.786Z" fill="url(#paint0_linear_1_118)"/>
<path d="M363.11 401.136V398.204H256.89V401.136C257.371 401.758 259.488 403.002 264.106 403.002H355.894C360.512 403.002 362.629 401.758 363.11 401.136Z" fill="url(#paint1_linear_1_118)"/>
<path d="M256.89 398.204H0V401.669H257.537C257.218 401.473 257.006 401.286 256.89 401.136V398.204Z" fill="url(#paint2_linear_1_118)"/>
<path d="M363.11 398.204V401.136C362.994 401.286 362.782 401.473 362.463 401.669H620V398.204H363.11Z" fill="url(#paint3_linear_1_118)"/>
<path d="M257.158 401.403C257.956 402.057 260.081 403.002 264.106 403.002H355.894C359.919 403.002 362.044 402.057 362.842 401.403H620C614.708 404.78 595.87 411 562.849 411H57.1508C24.1303 411 5.29176 404.78 0 401.403H257.158Z" fill="url(#paint4_linear_1_118)"/>
<path d="M57.7281 386.74H561.695V392.937C561.695 395.698 559.456 397.937 556.695 397.937H62.7281C59.9667 397.937 57.7281 395.698 57.7281 392.937V386.74Z" fill="#101010"/>
<path d="M294.669 394.515V389.406H293.868L291.959 393.704H291.928L290.019 389.406H289.218V394.515H289.862V390.578H289.889L291.652 394.515H292.235L293.998 390.578H294.025V394.515H294.669Z" fill="#909092"/>
<path d="M296.689 394.579C297.226 394.579 297.732 394.303 297.97 393.881H297.985V394.515H298.618V391.97C298.618 391.237 298.027 390.769 297.092 390.769C296.149 390.769 295.558 391.258 295.512 391.895H296.157C296.241 391.534 296.563 391.311 297.077 391.311C297.629 391.311 297.951 391.58 297.951 392.03V392.338L296.808 392.398C295.888 392.448 295.363 392.844 295.363 393.474C295.363 394.136 295.896 394.579 296.689 394.579ZM296.839 394.055C296.36 394.055 296.042 393.825 296.042 393.474C296.042 393.127 296.348 392.908 296.885 392.876L297.951 392.816V393.117C297.951 393.648 297.468 394.055 296.839 394.055Z" fill="#909092"/>
<path d="M302.777 392.04C302.693 391.378 302.098 390.769 301.102 390.769C300.002 390.769 299.269 391.513 299.269 392.674C299.269 393.86 300.005 394.579 301.109 394.579C302.014 394.579 302.681 394.062 302.785 393.329H302.129C302.014 393.772 301.658 394.037 301.113 394.037C300.423 394.037 299.948 393.531 299.948 392.674C299.948 391.839 300.416 391.311 301.106 391.311C301.692 391.311 302.029 391.64 302.125 392.04H302.777Z" fill="#909092"/>
<path d="M305.591 394.515C306.768 394.515 307.465 393.981 307.465 393.081C307.465 392.402 306.982 391.913 306.231 391.824V391.796C306.764 391.708 307.186 391.212 307.186 390.681C307.186 389.916 306.545 389.406 305.598 389.406H303.502V394.515H305.591ZM304.192 389.969H305.441C306.112 389.969 306.488 390.249 306.488 390.755C306.488 391.307 306.043 391.608 305.227 391.608H304.192V389.969ZM304.192 393.952V392.157H305.422C306.304 392.157 306.756 392.458 306.756 393.049C306.756 393.641 306.319 393.952 305.487 393.952H304.192Z" fill="#909092"/>
<path d="M309.796 394.579C310.896 394.579 311.64 393.846 311.64 392.674C311.64 391.499 310.896 390.769 309.796 390.769C308.692 390.769 307.948 391.499 307.948 392.674C307.948 393.846 308.692 394.579 309.796 394.579ZM309.796 394.037C309.091 394.037 308.627 393.542 308.627 392.674C308.627 391.807 309.091 391.311 309.796 391.311C310.502 391.311 310.962 391.807 310.962 392.674C310.962 393.542 310.502 394.037 309.796 394.037Z" fill="#909092"/>
<path d="M313.967 394.579C315.067 394.579 315.811 393.846 315.811 392.674C315.811 391.499 315.067 390.769 313.967 390.769C312.863 390.769 312.119 391.499 312.119 392.674C312.119 393.846 312.863 394.579 313.967 394.579ZM313.967 394.037C313.262 394.037 312.798 393.542 312.798 392.674C312.798 391.807 313.262 391.311 313.967 391.311C314.672 391.311 315.132 391.807 315.132 392.674C315.132 393.542 314.672 394.037 313.967 394.037Z" fill="#909092"/>
<path d="M317.187 393.127L317.559 392.802L319.039 394.515H319.813L318.031 392.423L319.759 390.833H318.951L317.187 392.469V389.406H316.52V394.515H317.187V393.127Z" fill="#909092"/>
<path d="M325.606 394.515H326.33L324.291 389.406H323.608L321.569 394.515H322.293L322.849 393.053H325.05L325.606 394.515ZM323.938 390.182H323.961L324.846 392.511H323.052L323.938 390.182Z" fill="#909092"/>
<path d="M327.227 390.178C327.461 390.178 327.645 390.004 327.645 389.792C327.645 389.576 327.461 389.406 327.227 389.406C326.997 389.406 326.809 389.576 326.809 389.792C326.809 390.004 326.997 390.178 327.227 390.178ZM326.894 394.515H327.561V390.833H326.894V394.515Z" fill="#909092"/>
<path d="M328.461 394.515H329.129V392.221C329.129 391.7 329.466 391.357 329.983 391.357C330.144 391.357 330.286 391.375 330.34 391.392V390.794C330.286 390.787 330.187 390.769 330.072 390.769C329.604 390.769 329.236 391.028 329.106 391.435H329.09V390.833H328.461V394.515Z" fill="#909092"/>
<defs>
<linearGradient id="paint0_linear_1_118" x1="309.711" y1="415.372" x2="309.711" y2="406.308" gradientUnits="userSpaceOnUse">
<stop stop-color="#9B9EA0" stop-opacity="0"/>
<stop offset="1" stop-color="#1B1D1E"/>
</linearGradient>
<linearGradient id="paint1_linear_1_118" x1="256.89" y1="399.803" x2="363.11" y2="399.803" gradientUnits="userSpaceOnUse">
<stop stop-color="#2E2F34"/>
<stop offset="0.116817" stop-color="#5C5D62"/>
<stop offset="0.253445" stop-color="#7E7F84"/>
<stop offset="0.505951" stop-color="#7E7F84"/>
<stop offset="0.734504" stop-color="#7E7F84"/>
<stop offset="0.908586" stop-color="#57585D"/>
<stop offset="1" stop-color="#303136"/>
</linearGradient>
<linearGradient id="paint2_linear_1_118" x1="3.44947e-06" y1="400.073" x2="620" y2="400.071" gradientUnits="userSpaceOnUse">
<stop stop-color="#3E3F43"/>
<stop offset="0.0244084" stop-color="#8A8B8F"/>
<stop offset="0.979558" stop-color="#8A8B8F"/>
<stop offset="1" stop-color="#46474B"/>
</linearGradient>
<linearGradient id="paint3_linear_1_118" x1="3.44947e-06" y1="400.073" x2="620" y2="400.071" gradientUnits="userSpaceOnUse">
<stop stop-color="#3E3F43"/>
<stop offset="0.0244084" stop-color="#8A8B8F"/>
<stop offset="0.979558" stop-color="#8A8B8F"/>
<stop offset="1" stop-color="#46474B"/>
</linearGradient>
<linearGradient id="paint4_linear_1_118" x1="310" y1="401.669" x2="310" y2="416.865" gradientUnits="userSpaceOnUse">
<stop stop-color="#55565A"/>
<stop offset="1"/>
</linearGradient>
</defs>
</svg>
