<svg width="612" height="497" viewBox="0 0 612 497" fill="none" xmlns="http://www.w3.org/2000/svg">
<circle cx="306.5" cy="248.5" r="248.5" fill="#4DB05F"/>
<path d="M56.4134 94.865C56.4134 87.0381 63.0466 80.6931 71.229 80.6931H540.201C548.384 80.6931 555.017 87.0381 555.017 94.865V395.271C555.017 397.038 553.486 398.47 551.598 398.47H59.8324C57.9441 398.47 56.4134 397.038 56.4134 395.271V94.865Z" fill="black"/>
<path d="M307.61 92.4232C307.61 93.2452 306.895 93.9227 306 93.9227C305.105 93.9227 304.39 93.2452 304.39 92.4232C304.39 91.6011 305.105 90.9236 306 90.9236C306.895 90.9236 307.61 91.6011 307.61 92.4232Z" fill="#0F0F0F" stroke="#151515" stroke-width="0.2"/>
<ellipse cx="305.829" cy="92.7964" rx="0.39888" ry="0.373228" fill="#16181E"/>
<ellipse cx="305.829" cy="92.2632" rx="0.39888" ry="0.373228" fill="#0A0B0D"/>
<ellipse opacity="0.6" cx="306" cy="92.4231" rx="0.569824" ry="0.533183" fill="#1F2531"/>
<path fill-rule="evenodd" clip-rule="evenodd" d="M55.6727 94.865C55.6727 86.6698 62.6223 80 71.2292 80H540.201C548.808 80 555.758 86.6698 555.758 94.865V395.271C555.758 397.421 553.895 399.163 551.598 399.163H59.8325C57.5351 399.163 55.6727 397.421 55.6727 395.271V94.865ZM71.2292 81.3863C63.4711 81.3863 57.1543 87.4064 57.1543 94.865V395.271C57.1543 396.655 58.3534 397.777 59.8325 397.777H551.598C553.077 397.777 554.276 396.655 554.276 395.271V94.865C554.276 87.4064 547.959 81.3863 540.201 81.3863H71.2292Z" fill="#6A6B6F"/>
<path d="M521.963 406.308C528.163 406.308 567.555 415.372 551.963 415.372H59.4676C43.8749 415.372 83.2674 406.308 89.4677 406.308H521.963Z" fill="url(#paint0_linear_1_118)"/>
<path d="M358.425 401.136V398.204H253.575V401.136C254.05 401.758 256.14 403.002 260.698 403.002H351.302C355.86 403.002 357.95 401.758 358.425 401.136Z" fill="url(#paint1_linear_1_118)"/>
<path d="M253.575 398.204H0V401.669H254.214C253.899 401.473 253.69 401.286 253.575 401.136V398.204Z" fill="url(#paint2_linear_1_118)"/>
<path d="M358.425 398.204V401.136C358.31 401.286 358.101 401.473 357.786 401.669H612V398.204H358.425Z" fill="url(#paint3_linear_1_118)"/>
<path d="M253.84 401.403C254.628 402.057 256.725 403.002 260.698 403.002H351.302C355.275 403.002 357.372 402.057 358.16 401.403H612C606.776 404.78 588.181 411 555.587 411H56.4134C23.819 411 5.22348 404.78 0 401.403H253.84Z" fill="url(#paint4_linear_1_118)"/>
<path d="M56.9832 386.74H554.447V392.937C554.447 395.698 552.208 397.937 549.447 397.937H61.9832C59.2218 397.937 56.9832 395.698 56.9832 392.937V386.74Z" fill="#101010"/>
<path d="M290.867 394.515V389.406H290.076L288.192 393.704H288.161L286.277 389.406H285.486V394.515H286.122V390.578H286.148L287.889 394.515H288.464L290.205 390.578H290.231V394.515H290.867Z" fill="#909092"/>
<path d="M292.861 394.579C293.391 394.579 293.89 394.303 294.125 393.881H294.14V394.515H294.764V391.97C294.764 391.237 294.182 390.769 293.258 390.769C292.328 390.769 291.745 391.258 291.699 391.895H292.335C292.418 391.534 292.736 391.311 293.243 391.311C293.788 391.311 294.106 391.58 294.106 392.03V392.338L292.978 392.398C292.07 392.448 291.552 392.844 291.552 393.474C291.552 394.136 292.078 394.579 292.861 394.579ZM293.009 394.055C292.536 394.055 292.222 393.825 292.222 393.474C292.222 393.127 292.524 392.908 293.054 392.876L294.106 392.816V393.117C294.106 393.648 293.629 394.055 293.009 394.055Z" fill="#909092"/>
<path d="M298.87 392.04C298.787 391.378 298.2 390.769 297.217 390.769C296.131 390.769 295.408 391.513 295.408 392.674C295.408 393.86 296.134 394.579 297.224 394.579C298.117 394.579 298.776 394.062 298.878 393.329H298.231C298.117 393.772 297.765 394.037 297.228 394.037C296.547 394.037 296.078 393.531 296.078 392.674C296.078 391.839 296.539 391.311 297.22 391.311C297.799 391.311 298.132 391.64 298.227 392.04H298.87Z" fill="#909092"/>
<path d="M301.648 394.515C302.809 394.515 303.498 393.981 303.498 393.081C303.498 392.402 303.021 391.913 302.28 391.824V391.796C302.806 391.708 303.222 391.212 303.222 390.681C303.222 389.916 302.59 389.406 301.655 389.406H299.585V394.515H301.648ZM300.266 389.969H301.5C302.162 389.969 302.533 390.249 302.533 390.755C302.533 391.307 302.094 391.608 301.288 391.608H300.266V389.969ZM300.266 393.952V392.157H301.481C302.352 392.157 302.798 392.458 302.798 393.049C302.798 393.641 302.367 393.952 301.546 393.952H300.266Z" fill="#909092"/>
<path d="M305.799 394.579C306.885 394.579 307.619 393.846 307.619 392.674C307.619 391.499 306.885 390.769 305.799 390.769C304.709 390.769 303.975 391.499 303.975 392.674C303.975 393.846 304.709 394.579 305.799 394.579ZM305.799 394.037C305.103 394.037 304.645 393.542 304.645 392.674C304.645 391.807 305.103 391.311 305.799 391.311C306.495 391.311 306.949 391.807 306.949 392.674C306.949 393.542 306.495 394.037 305.799 394.037Z" fill="#909092"/>
<path d="M309.916 394.579C311.002 394.579 311.736 393.846 311.736 392.674C311.736 391.499 311.002 390.769 309.916 390.769C308.826 390.769 308.092 391.499 308.092 392.674C308.092 393.846 308.826 394.579 309.916 394.579ZM309.916 394.037C309.22 394.037 308.762 393.542 308.762 392.674C308.762 391.807 309.22 391.311 309.916 391.311C310.612 391.311 311.066 391.807 311.066 392.674C311.066 393.542 310.612 394.037 309.916 394.037Z" fill="#909092"/>
<path d="M313.094 393.127L313.461 392.802L314.922 394.515H315.686L313.927 392.423L315.633 390.833H314.835L313.094 392.469V389.406H312.436V394.515H313.094V393.127Z" fill="#909092"/>
<path d="M321.404 394.515H322.119L320.106 389.406H319.433L317.42 394.515H318.135L318.683 393.053H320.855L321.404 394.515ZM319.758 390.182H319.781L320.655 392.511H318.884L319.758 390.182Z" fill="#909092"/>
<path d="M323.005 390.178C323.236 390.178 323.417 390.004 323.417 389.792C323.417 389.576 323.236 389.406 323.005 389.406C322.778 389.406 322.592 389.576 322.592 389.792C322.592 390.004 322.778 390.178 323.005 390.178ZM322.676 394.515H323.334V390.833H322.676V394.515Z" fill="#909092"/>
<path d="M324.223 394.515H324.882V392.221C324.882 391.7 325.215 391.357 325.726 391.357C325.884 391.357 326.024 391.375 326.077 391.392V390.794C326.024 390.787 325.926 390.769 325.813 390.769C325.351 390.769 324.988 391.028 324.859 391.435H324.844V390.833H324.223V394.515Z" fill="#909092"/>
<defs>
<linearGradient id="paint0_linear_1_118" x1="305.715" y1="415.372" x2="305.715" y2="406.308" gradientUnits="userSpaceOnUse">
<stop stop-color="#9B9EA0" stop-opacity="0"/>
<stop offset="1" stop-color="#1B1D1E"/>
</linearGradient>
<linearGradient id="paint1_linear_1_118" x1="253.575" y1="399.803" x2="358.425" y2="399.803" gradientUnits="userSpaceOnUse">
<stop stop-color="#2E2F34"/>
<stop offset="0.116817" stop-color="#5C5D62"/>
<stop offset="0.253445" stop-color="#7E7F84"/>
<stop offset="0.505951" stop-color="#7E7F84"/>
<stop offset="0.734504" stop-color="#7E7F84"/>
<stop offset="0.908586" stop-color="#57585D"/>
<stop offset="1" stop-color="#303136"/>
</linearGradient>
<linearGradient id="paint2_linear_1_118" x1="3.40496e-06" y1="400.073" x2="612" y2="400.071" gradientUnits="userSpaceOnUse">
<stop stop-color="#3E3F43"/>
<stop offset="0.0244084" stop-color="#8A8B8F"/>
<stop offset="0.979558" stop-color="#8A8B8F"/>
<stop offset="1" stop-color="#46474B"/>
</linearGradient>
<linearGradient id="paint3_linear_1_118" x1="3.40496e-06" y1="400.073" x2="612" y2="400.071" gradientUnits="userSpaceOnUse">
<stop stop-color="#3E3F43"/>
<stop offset="0.0244084" stop-color="#8A8B8F"/>
<stop offset="0.979558" stop-color="#8A8B8F"/>
<stop offset="1" stop-color="#46474B"/>
</linearGradient>
<linearGradient id="paint4_linear_1_118" x1="306" y1="401.669" x2="306" y2="416.865" gradientUnits="userSpaceOnUse">
<stop stop-color="#55565A"/>
<stop offset="1"/>
</linearGradient>
</defs>
</svg>
