<svg width="30" height="30" viewBox="0 0 87 87" fill="none" xmlns="http://www.w3.org/2000/svg">
<path d="M57.6 39.6C63.576 39.6 68.364 34.776 68.364 28.8C68.364 22.824 63.576 18 57.6 18C51.624 18 46.8 22.824 46.8 28.8C46.8 34.776 51.624 39.6 57.6 39.6ZM28.8 39.6C34.776 39.6 39.564 34.776 39.564 28.8C39.564 22.824 34.776 18 28.8 18C22.824 18 18 22.824 18 28.8C18 34.776 22.824 39.6 28.8 39.6ZM28.8 46.8C20.412 46.8 3.6 51.012 3.6 59.4V68.4H54V59.4C54 51.012 37.188 46.8 28.8 46.8ZM57.6 46.8C56.556 46.8 55.368 46.872 54.108 46.98C58.284 50.004 61.2 54.072 61.2 59.4V68.4H82.8V59.4C82.8 51.012 65.988 46.8 57.6 46.8Z" fill="#555"/>
</svg>
